<svg width="879.6" height="95" viewBox="0 0 879.6 95" xmlns="http://www.w3.org/2000/svg"><g id="svgGroup" stroke-linecap="round" fill-rule="evenodd" font-size="9pt" stroke="#00000000" stroke-width="0.25mm" fill="#3888ab" style="stroke:#00000000;stroke-width:0.25mm;fill:#3888ab"><path d="M 6.6 77 L 0 77 L 0 3.9 L 6.6 3.9 L 6.6 36.3 L 20.1 36.3 L 36.3 3.9 L 43.5 3.9 L 25.9 39 L 44.5 77 L 36.8 77 L 19.9 42.1 L 6.6 42.1 L 6.6 77 Z M 357.7 58.3 L 364.3 58.3 A 14.895 14.895 0 0 0 364.983 62.916 A 12.02 12.02 0 0 0 368.6 68.35 Q 372.9 72.1 380.2 72.1 Q 385.584 72.1 389.164 70.03 A 12.186 12.186 0 0 0 391.15 68.6 Q 395.1 65.1 395.1 58.9 A 16.263 16.263 0 0 0 394.294 53.7 A 14.261 14.261 0 0 0 392.2 49.7 A 14.378 14.378 0 0 0 385.857 44.902 A 18.517 18.517 0 0 0 384.1 44.3 L 375.1 41.5 A 25.171 25.171 0 0 1 369.152 38.88 A 19.936 19.936 0 0 1 363.75 34.05 A 19.43 19.43 0 0 1 359.748 23.152 A 24.52 24.52 0 0 1 359.7 21.6 Q 359.7 15.9 362.2 11.75 Q 364.7 7.6 369.35 5.3 A 21.611 21.611 0 0 1 375.278 3.41 A 29.428 29.428 0 0 1 380.3 3 A 27.462 27.462 0 0 1 386.553 3.672 A 18.415 18.415 0 0 1 395.2 8.2 A 17.498 17.498 0 0 1 400.401 18.019 A 25.097 25.097 0 0 1 400.8 22.3 L 394.2 22.3 A 16.316 16.316 0 0 0 393.688 18.098 A 11.683 11.683 0 0 0 390.4 12.5 A 12.775 12.775 0 0 0 384.207 9.307 A 18.729 18.729 0 0 0 380.2 8.9 A 21.303 21.303 0 0 0 376.105 9.27 Q 373.702 9.741 371.823 10.813 A 11.467 11.467 0 0 0 370 12.1 A 10.44 10.44 0 0 0 366.535 18.343 A 15.461 15.461 0 0 0 366.3 21.1 A 15.044 15.044 0 0 0 367.223 26.43 A 13.803 13.803 0 0 0 369.1 29.85 A 14.591 14.591 0 0 0 374.96 34.462 A 18.723 18.723 0 0 0 376.9 35.2 L 385.9 38 Q 393.3 40.3 397.5 45.8 Q 401.7 51.3 401.7 58.6 A 22.185 22.185 0 0 1 401.118 63.791 A 17.517 17.517 0 0 1 399.05 68.85 A 17.68 17.68 0 0 1 392 75.371 A 21.201 21.201 0 0 1 391.55 75.6 A 22.628 22.628 0 0 1 385.209 77.604 A 30.355 30.355 0 0 1 380.2 78 Q 373.361 78 368.339 75.642 A 21.148 21.148 0 0 1 368.25 75.6 A 18.787 18.787 0 0 1 362.78 71.742 A 17.394 17.394 0 0 1 360.45 68.75 Q 358.467 65.542 357.914 61.528 A 23.628 23.628 0 0 1 357.7 58.3 Z M 246.6 77 L 240 77 L 240 22 L 246.6 22 L 246.6 31.9 L 248.7 31.9 L 246.2 35.8 A 18.475 18.475 0 0 1 246.736 31.222 A 12.852 12.852 0 0 1 250.35 24.95 A 13.865 13.865 0 0 1 256.878 21.51 A 20.623 20.623 0 0 1 261.6 21 A 21.135 21.135 0 0 1 267.395 21.755 A 15.896 15.896 0 0 1 274.7 26.15 A 17.147 17.147 0 0 1 278.911 34.053 Q 279.557 36.687 279.597 39.785 A 31.857 31.857 0 0 1 279.6 40.2 L 279.6 77 L 273 77 L 273 41 Q 273 34.2 269.5 30.45 A 11.574 11.574 0 0 0 262.717 26.913 A 16.651 16.651 0 0 0 260 26.7 A 15.887 15.887 0 0 0 255.756 27.237 A 11.619 11.619 0 0 0 250.2 30.6 Q 246.886 34.19 246.623 40.323 A 25.121 25.121 0 0 0 246.6 41.4 L 246.6 77 Z M 846.6 77 L 840 77 L 840 22 L 846.6 22 L 846.6 31.9 L 848.7 31.9 L 846.2 35.8 A 18.475 18.475 0 0 1 846.736 31.222 A 12.852 12.852 0 0 1 850.35 24.95 A 13.865 13.865 0 0 1 856.878 21.51 A 20.623 20.623 0 0 1 861.6 21 A 21.135 21.135 0 0 1 867.395 21.755 A 15.896 15.896 0 0 1 874.7 26.15 A 17.147 17.147 0 0 1 878.911 34.053 Q 879.557 36.687 879.597 39.785 A 31.857 31.857 0 0 1 879.6 40.2 L 879.6 77 L 873 77 L 873 41 Q 873 34.2 869.5 30.45 A 11.574 11.574 0 0 0 862.717 26.913 A 16.651 16.651 0 0 0 860 26.7 A 15.887 15.887 0 0 0 855.756 27.237 A 11.619 11.619 0 0 0 850.2 30.6 Q 846.886 34.19 846.623 40.323 A 25.121 25.121 0 0 0 846.6 41.4 L 846.6 77 Z M 494.9 45.6 L 513 45.6 L 513 39.5 A 17.229 17.229 0 0 0 512.613 35.734 Q 512.049 33.218 510.665 31.363 A 10.182 10.182 0 0 0 509.65 30.2 A 10.848 10.848 0 0 0 504.979 27.532 Q 502.812 26.9 500.1 26.9 A 19.84 19.84 0 0 0 496.023 27.297 Q 493.351 27.858 491.273 29.212 A 12.391 12.391 0 0 0 490.85 29.5 A 10.166 10.166 0 0 0 487.679 33.051 A 10.331 10.331 0 0 0 486.6 36.5 L 480 36.5 A 16.225 16.225 0 0 1 486.278 25.384 A 19.372 19.372 0 0 1 486.45 25.25 Q 492 21 500.1 21 A 25.668 25.668 0 0 1 506.151 21.674 A 17.712 17.712 0 0 1 514.3 26 A 16.584 16.584 0 0 1 519.346 35.888 A 23.45 23.45 0 0 1 519.6 39.4 L 519.6 77 L 513.1 77 L 513.1 66.1 L 512 66.1 L 513.5 64.3 A 12.898 12.898 0 0 1 512.523 69.396 Q 511.353 72.148 508.782 74.186 A 15.126 15.126 0 0 1 508.7 74.25 A 16.712 16.712 0 0 1 502.697 77.176 Q 500.317 77.82 497.507 77.961 A 32.107 32.107 0 0 1 495.9 78 A 26.596 26.596 0 0 1 490.235 77.432 Q 485.505 76.401 482.25 73.5 A 14.844 14.844 0 0 1 477.252 63.073 A 20.461 20.461 0 0 1 477.2 61.6 Q 477.2 54.2 482.05 49.9 A 16.581 16.581 0 0 1 489.557 46.156 A 24.323 24.323 0 0 1 494.9 45.6 Z M 459.8 77 L 445.7 77 A 20.296 20.296 0 0 1 441.692 76.629 Q 439.275 76.142 437.414 75.015 A 10.947 10.947 0 0 1 435.5 73.55 A 11.174 11.174 0 0 1 432.449 68.25 Q 431.969 66.456 431.909 64.318 A 22.002 22.002 0 0 1 431.9 63.7 L 431.9 28 L 416.1 28 L 416.1 22 L 431.9 22 L 431.9 6.5 L 438.5 6.5 L 438.5 22 L 460.8 22 L 460.8 28 L 438.5 28 L 438.5 63.7 Q 438.5 69.463 442.987 70.677 A 10.409 10.409 0 0 0 445.7 71 L 459.8 71 L 459.8 77 Z M 759.8 77 L 745.7 77 A 20.296 20.296 0 0 1 741.692 76.629 Q 739.275 76.142 737.414 75.015 A 10.947 10.947 0 0 1 735.5 73.55 A 11.174 11.174 0 0 1 732.449 68.25 Q 731.969 66.456 731.909 64.318 A 22.002 22.002 0 0 1 731.9 63.7 L 731.9 28 L 716.1 28 L 716.1 22 L 731.9 22 L 731.9 6.5 L 738.5 6.5 L 738.5 22 L 760.8 22 L 760.8 28 L 738.5 28 L 738.5 63.7 Q 738.5 69.463 742.987 70.677 A 10.409 10.409 0 0 0 745.7 71 L 759.8 71 L 759.8 77 Z M 546.6 95 L 540 95 L 540 22 L 546.6 22 L 546.6 30.7 L 549 30.7 L 546 35.4 A 16.163 16.163 0 0 1 546.651 30.699 A 12.527 12.527 0 0 1 550.35 24.9 Q 554.7 21 561.8 21 A 20.429 20.429 0 0 1 567.773 21.832 A 15.933 15.933 0 0 1 575.05 26.45 A 18.414 18.414 0 0 1 579.304 34.728 Q 580 37.65 580 41.1 L 580 57.8 A 27.317 27.317 0 0 1 579.495 63.178 A 20.613 20.613 0 0 1 577.7 68.45 A 17.917 17.917 0 0 1 574.035 73.439 A 16.525 16.525 0 0 1 571.35 75.5 A 16.655 16.655 0 0 1 564.938 77.78 A 21.649 21.649 0 0 1 561.8 78 A 20.798 20.798 0 0 1 556.862 77.445 A 14.688 14.688 0 0 1 550.35 74.05 A 13.071 13.071 0 0 1 546.068 65.185 A 18.087 18.087 0 0 1 546 63.6 L 548.4 68.3 L 546.5 68.3 L 546.6 77.8 L 546.6 95 Z M 144 77 L 135.4 77 L 116.5 22 L 123.3 22 L 136.5 61.4 Q 137.5 64.3 138.45 67.3 Q 139.233 69.773 139.642 71.362 A 31.422 31.422 0 0 1 139.8 72 Q 140.183 70.699 140.8 68.635 A 1749.693 1749.693 0 0 1 141.2 67.3 Q 142.1 64.3 143.1 61.4 L 156.2 22 L 162.9 22 L 144 77 Z M 59.4 57.6 L 59.4 41.4 A 26.441 26.441 0 0 1 59.903 36.12 A 19.797 19.797 0 0 1 61.85 30.65 Q 64.3 26.1 68.9 23.55 Q 73.5 21 79.8 21 A 25.37 25.37 0 0 1 85.165 21.542 A 19.266 19.266 0 0 1 90.55 23.55 Q 95.1 26.1 97.55 30.65 A 20.084 20.084 0 0 1 99.626 36.808 A 27.036 27.036 0 0 1 100 41.4 L 100 51 L 65.9 51 L 65.9 57.6 Q 65.9 63.154 68.232 66.764 A 12.037 12.037 0 0 0 69.5 68.4 Q 73.019 72.213 79.501 72.298 A 22.664 22.664 0 0 0 79.8 72.3 Q 84.409 72.3 87.597 70.588 A 11.696 11.696 0 0 0 88.65 69.95 A 11.371 11.371 0 0 0 93.141 63.83 A 14.427 14.427 0 0 0 93.3 63.3 L 99.9 63.3 Q 98.6 70.1 93.25 74.05 A 19.717 19.717 0 0 1 85.378 77.468 A 27.811 27.811 0 0 1 79.8 78 A 26.687 26.687 0 0 1 74.44 77.487 A 19.884 19.884 0 0 1 68.9 75.5 Q 64.3 73 61.85 68.4 A 20.528 20.528 0 0 1 59.745 62.025 A 27.319 27.319 0 0 1 59.4 57.6 Z M 659.4 57.6 L 659.4 41.4 A 26.441 26.441 0 0 1 659.903 36.12 A 19.797 19.797 0 0 1 661.85 30.65 Q 664.3 26.1 668.9 23.55 Q 673.5 21 679.8 21 A 25.37 25.37 0 0 1 685.165 21.542 A 19.266 19.266 0 0 1 690.55 23.55 Q 695.1 26.1 697.55 30.65 A 20.084 20.084 0 0 1 699.626 36.808 A 27.036 27.036 0 0 1 700 41.4 L 700 51 L 665.9 51 L 665.9 57.6 Q 665.9 63.154 668.232 66.764 A 12.037 12.037 0 0 0 669.5 68.4 Q 673.019 72.213 679.501 72.298 A 22.664 22.664 0 0 0 679.8 72.3 Q 684.409 72.3 687.597 70.588 A 11.696 11.696 0 0 0 688.65 69.95 A 11.371 11.371 0 0 0 693.141 63.83 A 14.427 14.427 0 0 0 693.3 63.3 L 699.9 63.3 Q 698.6 70.1 693.25 74.05 A 19.717 19.717 0 0 1 685.378 77.468 A 27.811 27.811 0 0 1 679.8 78 A 26.687 26.687 0 0 1 674.44 77.487 A 19.884 19.884 0 0 1 668.9 75.5 Q 664.3 73 661.85 68.4 A 20.528 20.528 0 0 1 659.745 62.025 A 27.319 27.319 0 0 1 659.4 57.6 Z M 644.1 77 L 626.6 77 A 20.844 20.844 0 0 1 622.855 76.681 Q 620.641 76.276 618.817 75.36 A 13.112 13.112 0 0 1 618.7 75.3 Q 615.4 73.6 613.6 70.4 A 13.608 13.608 0 0 1 612.12 66.266 A 18.886 18.886 0 0 1 611.8 62.7 L 611.8 10 L 593.9 10 L 593.9 4 L 618.4 4 L 618.4 62.7 A 11.923 11.923 0 0 0 618.631 65.126 Q 618.939 66.604 619.654 67.731 A 6.514 6.514 0 0 0 620.55 68.85 Q 622.7 71 626.6 71 L 644.1 71 L 644.1 77 Z M 224 77 L 178.8 77 L 178.8 71 L 198.7 71 L 198.7 28 L 181.3 28 L 181.3 22 L 205.3 22 L 205.3 71 L 224 71 L 224 77 Z M 779.4 57.5 L 779.4 41.5 A 26.689 26.689 0 0 1 779.879 36.323 A 19.583 19.583 0 0 1 781.9 30.65 Q 784.4 26.1 788.95 23.6 A 19.883 19.883 0 0 1 795.282 21.452 A 26.657 26.657 0 0 1 799.7 21.1 A 25.859 25.859 0 0 1 805.065 21.631 A 19.507 19.507 0 0 1 810.45 23.6 Q 815 26.1 817.5 30.65 A 19.883 19.883 0 0 1 819.648 36.982 A 26.657 26.657 0 0 1 820 41.4 L 820 57.5 A 26.687 26.687 0 0 1 819.487 62.861 A 19.884 19.884 0 0 1 817.5 68.4 Q 815 73 810.45 75.45 A 20.084 20.084 0 0 1 804.292 77.526 A 27.036 27.036 0 0 1 799.7 77.9 A 26.441 26.441 0 0 1 794.42 77.397 A 19.797 19.797 0 0 1 788.95 75.45 Q 784.4 73 781.9 68.4 A 20.177 20.177 0 0 1 779.781 62.163 A 27.297 27.297 0 0 1 779.4 57.5 Z M 813.4 57.5 L 813.4 41.5 A 21.838 21.838 0 0 0 813.012 37.251 Q 812.219 33.253 809.8 30.7 A 11.759 11.759 0 0 0 803.826 27.349 A 17.854 17.854 0 0 0 799.7 26.9 A 17.345 17.345 0 0 0 795.476 27.386 A 11.907 11.907 0 0 0 789.65 30.7 Q 786.406 34.077 786.045 39.981 A 24.886 24.886 0 0 0 786 41.5 L 786 57.5 A 21.838 21.838 0 0 0 786.388 61.749 Q 787.181 65.747 789.6 68.3 A 11.759 11.759 0 0 0 795.574 71.651 A 17.854 17.854 0 0 0 799.7 72.1 A 17.854 17.854 0 0 0 803.826 71.651 A 11.759 11.759 0 0 0 809.8 68.3 A 12.368 12.368 0 0 0 812.661 63.187 Q 813.215 61.301 813.354 59.045 A 25.197 25.197 0 0 0 813.4 57.5 Z M 573.4 57.6 L 573.4 41.3 A 22.137 22.137 0 0 0 573.018 37.051 Q 572.235 33.053 569.85 30.5 A 11.652 11.652 0 0 0 563.541 27.044 A 17.311 17.311 0 0 0 560 26.7 Q 553.8 26.7 550.2 30.55 A 12.658 12.658 0 0 0 547.289 35.847 Q 546.732 37.815 546.625 40.166 A 25.028 25.028 0 0 0 546.6 41.3 L 546.6 57.6 Q 546.6 63.154 548.932 66.764 A 12.037 12.037 0 0 0 550.2 68.4 A 11.885 11.885 0 0 0 557.237 72.086 A 17.119 17.119 0 0 0 560 72.3 Q 566.3 72.3 569.85 68.45 A 12.619 12.619 0 0 0 572.658 63.341 Q 573.215 61.435 573.354 59.159 A 25.566 25.566 0 0 0 573.4 57.6 Z M 513 60 L 513 50.9 L 494.9 50.9 A 14.531 14.531 0 0 0 491.424 51.294 A 10.262 10.262 0 0 0 486.85 53.7 A 9.273 9.273 0 0 0 483.86 59.842 A 12.811 12.811 0 0 0 483.8 61.1 A 11.656 11.656 0 0 0 484.419 64.979 A 9.927 9.927 0 0 0 487.55 69.4 Q 491.3 72.5 497.6 72.5 A 22.149 22.149 0 0 0 502.379 72.013 Q 505.68 71.284 508.155 69.464 A 13.793 13.793 0 0 0 508.75 69 Q 513 65.5 513 60 Z M 94.4 45.7 L 93.5 46.5 L 93.5 41.4 A 21.656 21.656 0 0 0 93.081 37.005 Q 92.517 34.289 91.199 32.201 A 12.263 12.263 0 0 0 89.95 30.55 A 11.501 11.501 0 0 0 83.89 27.046 A 17.655 17.655 0 0 0 79.8 26.6 Q 74.073 26.6 70.611 29.449 A 11.179 11.179 0 0 0 69.5 30.5 A 12.854 12.854 0 0 0 66.601 35.825 Q 66.042 37.805 65.929 40.17 A 25.655 25.655 0 0 0 65.9 41.4 L 65.9 45.7 L 94.4 45.7 Z M 694.4 45.7 L 693.5 46.5 L 693.5 41.4 A 21.656 21.656 0 0 0 693.081 37.005 Q 692.517 34.289 691.199 32.201 A 12.263 12.263 0 0 0 689.95 30.55 A 11.501 11.501 0 0 0 683.89 27.046 A 17.655 17.655 0 0 0 679.8 26.6 Q 674.073 26.6 670.611 29.449 A 11.179 11.179 0 0 0 669.5 30.5 A 12.854 12.854 0 0 0 666.601 35.825 Q 666.042 37.805 665.929 40.17 A 25.655 25.655 0 0 0 665.9 41.4 L 665.9 45.7 L 694.4 45.7 Z M 199.28 11.502 A 8.772 8.772 0 0 0 201.2 11.7 A 10.669 10.669 0 0 0 201.358 11.699 Q 202.4 11.684 203.283 11.464 A 5.714 5.714 0 0 0 205.8 10.15 A 4.994 4.994 0 0 0 207.271 7.728 A 6.9 6.9 0 0 0 207.5 5.9 A 7.546 7.546 0 0 0 207.419 4.772 A 5.308 5.308 0 0 0 205.8 1.6 A 5.7 5.7 0 0 0 203.129 0.207 A 8.499 8.499 0 0 0 201.2 0 Q 198.3 0 196.6 1.6 A 5.182 5.182 0 0 0 195.139 4.03 A 6.948 6.948 0 0 0 194.9 5.9 A 7.397 7.397 0 0 0 195 7.141 A 5.102 5.102 0 0 0 196.6 10.15 Q 197.692 11.146 199.28 11.502 Z" vector-effect="non-scaling-stroke"/></g></svg>
