<svg
  class="text"
  xmlns="http://www.w3.org/2000/svg"
  xmlns:xlink="http://www.w3.org/1999/xlink"
  viewBox="0 0 650 98"
  preserveAspectRatio="none"
  shape-rendering="auto"
>
  <defs>
     <g id="name" stroke-linecap="round" fill="rgba(149, 202, 202, 0.4)" fill-rule="evenodd" font-size="9pt" stroke="#000" stroke-width="0.25mm" style="stroke:#000;stroke-width:0.25mm"><path d="M 5.2 71 L 0 71 L 0 8 L 5.2 8 L 5.2 40.5 L 35.1 8 L 41.7 8 L 16 35.6 L 44.2 71 L 37.5 71 L 12.5 39.2 L 5.2 47.1 L 5.2 71 Z M 265.7 10.8 L 264.3 14.9 A 45.382 45.382 0 0 0 260.89 13.435 Q 259.206 12.796 257.663 12.393 A 24.957 24.957 0 0 0 256.65 12.15 Q 253.2 11.4 249.6 11.4 A 23.321 23.321 0 0 0 245.186 11.794 Q 241.545 12.496 238.95 14.45 A 9.77 9.77 0 0 0 234.963 21.587 A 13.309 13.309 0 0 0 234.9 22.9 A 12.989 12.989 0 0 0 235.3 26.216 A 9.206 9.206 0 0 0 238 30.75 A 17.081 17.081 0 0 0 240.728 32.762 Q 243.401 34.379 247.3 35.7 L 254.4 38.1 A 29.092 29.092 0 0 1 259.104 40.113 Q 261.749 41.552 263.659 43.441 A 16.646 16.646 0 0 1 264.85 44.75 Q 268.4 49.1 268.4 54.7 A 18.256 18.256 0 0 1 267.561 60.368 A 14.679 14.679 0 0 1 262.9 67.2 A 18.709 18.709 0 0 1 255.718 70.856 Q 252.935 71.616 249.633 71.764 A 36.368 36.368 0 0 1 248 71.8 Q 243.2 71.8 238.55 70.9 A 36.523 36.523 0 0 1 229.681 67.936 A 40.506 40.506 0 0 1 229.4 67.8 L 230.9 63.5 A 37.622 37.622 0 0 0 236.514 65.844 A 32.433 32.433 0 0 0 239.05 66.55 A 36.503 36.503 0 0 0 245.928 67.467 A 41.472 41.472 0 0 0 247.6 67.5 Q 253.658 67.5 257.795 65.047 A 14.804 14.804 0 0 0 258.65 64.5 A 9.754 9.754 0 0 0 262.814 57.73 A 15.137 15.137 0 0 0 263 55.3 A 13.212 13.212 0 0 0 262.409 51.33 A 12.483 12.483 0 0 0 262.4 51.3 A 9.864 9.864 0 0 0 261.06 48.617 A 12.01 12.01 0 0 0 260.35 47.7 A 12.818 12.818 0 0 0 258.76 46.15 Q 257.986 45.51 257.046 44.902 A 22.617 22.617 0 0 0 256.4 44.5 Q 254.457 43.334 251.728 42.289 A 47.936 47.936 0 0 0 250.1 41.7 L 243.3 39.5 Q 240.4 38.6 237.9 37.15 A 20.528 20.528 0 0 1 233.862 34.111 A 19.105 19.105 0 0 1 233.5 33.75 Q 231.6 31.8 230.55 29.3 A 13.445 13.445 0 0 1 229.603 25.579 A 16.778 16.778 0 0 1 229.5 23.7 A 17.883 17.883 0 0 1 230.293 18.243 A 14.223 14.223 0 0 1 234.7 11.65 A 17.13 17.13 0 0 1 240.918 8.33 Q 243.458 7.553 246.515 7.31 A 36.461 36.461 0 0 1 249.4 7.2 Q 253.7 7.2 257.7 8.05 A 35.323 35.323 0 0 1 264.2 10.124 A 40.208 40.208 0 0 1 265.7 10.8 Z M 165.2 34.8 L 165.2 71 L 160 71 L 160 24 L 163.8 24 L 164.6 30.5 A 30.421 30.421 0 0 1 171.336 25.662 A 28.498 28.498 0 0 1 171.95 25.35 A 18.876 18.876 0 0 1 178.171 23.554 A 23.564 23.564 0 0 1 180.9 23.4 A 20.868 20.868 0 0 1 185.478 23.873 Q 188.661 24.588 190.991 26.387 A 12.631 12.631 0 0 1 192.15 27.4 A 13.099 13.099 0 0 1 195.63 33.65 Q 196.16 35.742 196.197 38.223 A 25.156 25.156 0 0 1 196.2 38.6 L 196.2 71 L 191 71 L 191 39.9 A 21.783 21.783 0 0 0 190.785 36.787 A 18.354 18.354 0 0 0 190.45 35.05 A 10.156 10.156 0 0 0 189.384 32.355 A 9.109 9.109 0 0 0 188.55 31.15 A 8.581 8.581 0 0 0 186.207 29.176 A 10.886 10.886 0 0 0 184.95 28.55 Q 183.096 27.767 180.528 27.629 A 21.077 21.077 0 0 0 179.4 27.6 A 15.622 15.622 0 0 0 173.493 28.79 A 19.127 19.127 0 0 0 171.85 29.55 Q 168.1 31.5 165.2 34.8 Z M 573.8 34.8 L 573.8 71 L 568.6 71 L 568.6 24 L 572.4 24 L 573.2 30.5 A 30.421 30.421 0 0 1 579.936 25.662 A 28.498 28.498 0 0 1 580.55 25.35 A 18.876 18.876 0 0 1 586.771 23.554 A 23.564 23.564 0 0 1 589.5 23.4 A 20.868 20.868 0 0 1 594.078 23.873 Q 597.261 24.588 599.591 26.387 A 12.631 12.631 0 0 1 600.75 27.4 A 13.099 13.099 0 0 1 604.23 33.65 Q 604.76 35.742 604.797 38.223 A 25.156 25.156 0 0 1 604.8 38.6 L 604.8 71 L 599.6 71 L 599.6 39.9 A 21.783 21.783 0 0 0 599.385 36.787 A 18.354 18.354 0 0 0 599.05 35.05 A 10.156 10.156 0 0 0 597.984 32.355 A 9.109 9.109 0 0 0 597.15 31.15 A 8.581 8.581 0 0 0 594.807 29.176 A 10.886 10.886 0 0 0 593.55 28.55 Q 591.696 27.767 589.128 27.629 A 21.077 21.077 0 0 0 588 27.6 A 15.622 15.622 0 0 0 582.093 28.79 A 19.127 19.127 0 0 0 580.45 29.55 Q 576.7 31.5 573.8 34.8 Z M 368 68.6 L 368 94 L 362.8 94 L 362.8 23.4 L 367.1 23.4 L 367.9 29.4 A 20.974 20.974 0 0 1 370.775 27.019 A 28.302 28.302 0 0 1 373.7 25.25 A 15.282 15.282 0 0 1 377.842 23.806 Q 379.604 23.451 381.619 23.406 A 26.325 26.325 0 0 1 382.2 23.4 A 21.598 21.598 0 0 1 387.805 24.109 A 19.265 19.265 0 0 1 390.15 24.9 Q 393.8 26.4 396.5 29.3 A 18.811 18.811 0 0 1 399.616 33.889 A 23.693 23.693 0 0 1 400.7 36.5 Q 402.2 40.8 402.2 46.3 A 37.546 37.546 0 0 1 401.84 51.64 Q 401.429 54.495 400.55 56.919 A 22.097 22.097 0 0 1 400.25 57.7 A 25.276 25.276 0 0 1 397.728 62.457 A 20.623 20.623 0 0 1 395.05 65.65 Q 391.8 68.8 387.65 70.3 Q 383.5 71.8 379.2 71.8 A 22.784 22.784 0 0 1 374.663 71.361 A 20.143 20.143 0 0 1 373 70.95 A 18.56 18.56 0 0 1 370.145 69.863 A 14.615 14.615 0 0 1 368 68.6 Z M 304.6 24 L 304.6 28 L 288.8 28 L 288.8 58.8 A 16.402 16.402 0 0 0 288.931 60.959 Q 289.325 63.913 290.9 65.15 A 7.128 7.128 0 0 0 293.31 66.361 Q 294.792 66.8 296.7 66.8 A 26.966 26.966 0 0 0 300.169 66.585 A 22.392 22.392 0 0 0 302.1 66.25 Q 304.6 65.7 306.3 65.1 L 307.1 69 Q 305.545 69.622 303.447 70.123 A 42.122 42.122 0 0 1 302.2 70.4 A 28.354 28.354 0 0 1 298.748 70.885 A 36.495 36.495 0 0 1 295.8 71 A 20.164 20.164 0 0 1 292.333 70.722 Q 290.473 70.396 288.999 69.691 A 9.312 9.312 0 0 1 286.7 68.15 Q 284.031 65.697 283.66 61.057 A 19.525 19.525 0 0 1 283.6 59.5 L 283.6 28 L 275.1 28 L 275.1 24 L 283.6 24 L 283.6 9 L 288.8 9 L 288.8 24 L 304.6 24 Z M 506.4 24 L 506.4 28 L 490.6 28 L 490.6 58.8 A 16.402 16.402 0 0 0 490.731 60.959 Q 491.125 63.913 492.7 65.15 A 7.128 7.128 0 0 0 495.11 66.361 Q 496.592 66.8 498.5 66.8 A 26.966 26.966 0 0 0 501.969 66.585 A 22.392 22.392 0 0 0 503.9 66.25 Q 506.4 65.7 508.1 65.1 L 508.9 69 Q 507.345 69.622 505.247 70.123 A 42.122 42.122 0 0 1 504 70.4 A 28.354 28.354 0 0 1 500.548 70.885 A 36.495 36.495 0 0 1 497.6 71 A 20.164 20.164 0 0 1 494.133 70.722 Q 492.273 70.396 490.799 69.691 A 9.312 9.312 0 0 1 488.5 68.15 Q 485.831 65.697 485.46 61.057 A 19.525 19.525 0 0 1 485.4 59.5 L 485.4 28 L 476.9 28 L 476.9 24 L 485.4 24 L 485.4 9 L 490.6 9 L 490.6 24 L 506.4 24 Z M 317.4 31.8 L 315.4 28.1 A 54.354 54.354 0 0 1 319.369 26.18 Q 321.367 25.318 323.208 24.748 A 30.573 30.573 0 0 1 324.05 24.5 A 30.411 30.411 0 0 1 330.558 23.453 A 35.405 35.405 0 0 1 332.5 23.4 A 20.32 20.32 0 0 1 337.56 24.017 A 18.665 18.665 0 0 1 338.55 24.3 Q 341.4 25.2 343.55 27.2 Q 345.7 29.2 346.95 32.45 Q 348.002 35.186 348.169 38.949 A 32.841 32.841 0 0 1 348.2 40.4 L 348.2 71 L 344.6 71 L 343.5 64.8 L 343.3 64.8 A 19.098 19.098 0 0 1 338.158 69.201 A 18.029 18.029 0 0 1 336.5 70.05 A 20.06 20.06 0 0 1 330.215 71.684 A 24.565 24.565 0 0 1 327.8 71.8 A 20.128 20.128 0 0 1 323.87 71.429 A 17.155 17.155 0 0 1 321.7 70.85 A 14.659 14.659 0 0 1 318.098 69.07 A 13.22 13.22 0 0 1 316.85 68.1 Q 314.8 66.3 313.65 63.75 A 13.11 13.11 0 0 1 312.555 59.43 A 15.805 15.805 0 0 1 312.5 58.1 A 15.462 15.462 0 0 1 312.863 54.676 A 12.182 12.182 0 0 1 314 51.6 Q 315.5 48.8 318.2 46.95 A 17.482 17.482 0 0 1 321.881 45.048 A 22.625 22.625 0 0 1 324.65 44.2 Q 328.4 43.3 333 43.3 L 343 43.3 L 343 40.2 Q 343 33.592 340.167 30.667 A 7.165 7.165 0 0 0 340 30.5 A 10.177 10.177 0 0 0 334.231 27.741 A 14.112 14.112 0 0 0 332.2 27.6 Q 329.3 27.6 325.5 28.5 Q 321.938 29.344 317.937 31.505 A 44.489 44.489 0 0 0 317.4 31.8 Z M 113.4 57.4 L 124.3 24 L 129.8 24 L 113.3 71 L 108.7 71 L 92 24 L 97.5 24 L 108.6 57.3 L 111 66.6 L 111.2 66.6 L 113.4 57.4 Z M 86.3 43.9 L 86.3 47.5 L 52.8 47.5 L 52.8 48.9 A 26.223 26.223 0 0 0 53.361 54.495 Q 54.433 59.402 57.55 62.65 A 15.721 15.721 0 0 0 66.16 67.208 A 22.937 22.937 0 0 0 70.5 67.6 Q 77 67.6 82.7 65.4 L 83.9 69.4 Q 81.3 70.5 77.65 71.15 Q 74 71.8 70.2 71.8 A 28.092 28.092 0 0 1 63.059 70.911 A 25.722 25.722 0 0 1 61.35 70.4 Q 57.2 69 54.1 66.05 A 19.376 19.376 0 0 1 50.452 61.238 A 24.291 24.291 0 0 1 49.2 58.55 Q 47.4 54 47.4 47.6 A 34.905 34.905 0 0 1 47.862 41.806 A 27.942 27.942 0 0 1 48.9 37.6 A 23.437 23.437 0 0 1 51.104 32.79 A 19.703 19.703 0 0 1 53.2 29.95 Q 56 26.8 59.8 25.1 A 19.532 19.532 0 0 1 65.727 23.534 A 24.057 24.057 0 0 1 68.3 23.4 A 19.243 19.243 0 0 1 73.27 24.024 A 16.986 16.986 0 0 1 75.65 24.85 Q 79 26.3 81.35 29 A 18.383 18.383 0 0 1 84.235 33.559 A 22.36 22.36 0 0 1 85 35.5 A 24.064 24.064 0 0 1 86.146 40.832 A 29.847 29.847 0 0 1 86.3 43.9 Z M 470.7 43.9 L 470.7 47.5 L 437.2 47.5 L 437.2 48.9 A 26.223 26.223 0 0 0 437.761 54.495 Q 438.833 59.402 441.95 62.65 A 15.721 15.721 0 0 0 450.56 67.208 A 22.937 22.937 0 0 0 454.9 67.6 Q 461.4 67.6 467.1 65.4 L 468.3 69.4 Q 465.7 70.5 462.05 71.15 Q 458.4 71.8 454.6 71.8 A 28.092 28.092 0 0 1 447.459 70.911 A 25.722 25.722 0 0 1 445.75 70.4 Q 441.6 69 438.5 66.05 A 19.376 19.376 0 0 1 434.852 61.238 A 24.291 24.291 0 0 1 433.6 58.55 Q 431.8 54 431.8 47.6 A 34.905 34.905 0 0 1 432.262 41.806 A 27.942 27.942 0 0 1 433.3 37.6 A 23.437 23.437 0 0 1 435.504 32.79 A 19.703 19.703 0 0 1 437.6 29.95 Q 440.4 26.8 444.2 25.1 A 19.532 19.532 0 0 1 450.127 23.534 A 24.057 24.057 0 0 1 452.7 23.4 A 19.243 19.243 0 0 1 457.67 24.024 A 16.986 16.986 0 0 1 460.05 24.85 Q 463.4 26.3 465.75 29 A 18.383 18.383 0 0 1 468.635 33.559 A 22.36 22.36 0 0 1 469.4 35.5 A 24.064 24.064 0 0 1 470.546 40.832 A 29.847 29.847 0 0 1 470.7 43.9 Z M 419.6 71 L 414.4 71 L 414.4 0 L 419.6 0 L 419.6 71 Z M 556.8 47 Q 556.8 52.9 555.2 57.55 A 24.85 24.85 0 0 1 553.147 62.067 A 19.899 19.899 0 0 1 550.75 65.35 Q 547.9 68.5 544.1 70.15 Q 540.3 71.8 535.8 71.8 A 22.099 22.099 0 0 1 528.521 70.613 A 20.922 20.922 0 0 1 527.55 70.25 Q 523.7 68.7 520.9 65.7 Q 518.1 62.7 516.5 58.25 A 26.191 26.191 0 0 1 515.252 53.141 A 35.808 35.808 0 0 1 514.9 48 Q 514.9 42.1 516.55 37.5 A 24.704 24.704 0 0 1 518.783 32.813 A 20.269 20.269 0 0 1 521.1 29.75 Q 524 26.6 527.9 25 Q 531.8 23.4 536.2 23.4 A 22.759 22.759 0 0 1 542.462 24.244 A 20.764 20.764 0 0 1 544.4 24.9 Q 548.2 26.4 550.95 29.4 A 19.861 19.861 0 0 1 554.134 34.125 A 24.883 24.883 0 0 1 555.25 36.8 A 26.247 26.247 0 0 1 556.448 41.79 Q 556.789 44.159 556.8 46.828 A 43.195 43.195 0 0 1 556.8 47 Z M 368 34.4 L 368 64.3 Q 370.2 66 372.95 66.8 Q 375.7 67.6 378.5 67.6 Q 382 67.6 385.3 66.5 Q 388.6 65.4 391.15 62.85 A 16.569 16.569 0 0 0 393.81 59.32 A 22.177 22.177 0 0 0 395.25 56.25 A 21.539 21.539 0 0 0 396.31 52.352 Q 396.647 50.473 396.752 48.317 A 41.337 41.337 0 0 0 396.8 46.3 A 33.086 33.086 0 0 0 396.395 40.949 Q 395.934 38.14 394.947 35.876 A 15.391 15.391 0 0 0 392.95 32.5 Q 389.273 27.82 381.81 27.61 A 25.228 25.228 0 0 0 381.1 27.6 A 14.54 14.54 0 0 0 377.429 28.054 A 13.387 13.387 0 0 0 376.75 28.25 Q 374.7 28.9 373 29.9 A 18.4 18.4 0 0 0 370.896 31.334 A 15.674 15.674 0 0 0 370 32.1 Q 368.7 33.3 368 34.4 Z M 551.4 47.5 A 35.076 35.076 0 0 0 551.185 43.514 Q 550.95 41.461 550.457 39.695 A 19.526 19.526 0 0 0 550.1 38.55 A 21.772 21.772 0 0 0 548.694 35.32 A 16.068 16.068 0 0 0 546.65 32.35 A 13.734 13.734 0 0 0 543.387 29.596 A 12.557 12.557 0 0 0 541.7 28.75 Q 538.9 27.6 535.9 27.6 Q 532.9 27.6 530.1 28.75 A 13.374 13.374 0 0 0 525.802 31.616 A 15.862 15.862 0 0 0 525.1 32.35 A 15.953 15.953 0 0 0 522.857 35.617 A 21.372 21.372 0 0 0 521.6 38.55 Q 520.44 41.895 520.315 46.395 A 39.761 39.761 0 0 0 520.3 47.5 Q 520.3 51.953 521.185 55.291 A 19.199 19.199 0 0 0 521.65 56.8 A 21.731 21.731 0 0 0 522.994 59.857 Q 523.902 61.538 525.046 62.83 A 13.581 13.581 0 0 0 525.2 63 A 13.617 13.617 0 0 0 528.866 65.869 A 12.761 12.761 0 0 0 530.25 66.5 Q 533.1 67.6 536.1 67.6 Q 539.1 67.6 541.85 66.55 A 12.254 12.254 0 0 0 546.028 63.851 A 14.737 14.737 0 0 0 546.75 63.1 Q 548.9 60.7 550.15 56.85 A 23.499 23.499 0 0 0 551.003 53.174 Q 551.288 51.323 551.369 49.202 A 45.05 45.05 0 0 0 551.4 47.5 Z M 144.4 71 L 139.2 71 L 139.2 24 L 144.4 24 L 144.4 71 Z M 343 59.8 L 343 47.4 L 334.7 47.5 A 43.579 43.579 0 0 0 331.258 47.705 Q 329.637 47.87 328.232 48.16 A 22.647 22.647 0 0 0 327 48.45 A 23.538 23.538 0 0 0 324.633 49.207 Q 323.499 49.641 322.561 50.16 A 12.434 12.434 0 0 0 321.75 50.65 A 9.66 9.66 0 0 0 320.176 51.927 A 7.254 7.254 0 0 0 318.8 53.85 Q 317.9 55.7 317.9 57.8 A 12.567 12.567 0 0 0 318.06 59.86 Q 318.252 61.015 318.675 61.979 A 7.558 7.558 0 0 0 318.8 62.25 A 8.974 8.974 0 0 0 320.445 64.617 A 8.31 8.31 0 0 0 321.2 65.3 A 9.251 9.251 0 0 0 323.879 66.778 A 11.084 11.084 0 0 0 324.75 67.05 A 16.339 16.339 0 0 0 328.246 67.581 A 18.671 18.671 0 0 0 329.1 67.6 A 15.658 15.658 0 0 0 332.091 67.303 A 17.866 17.866 0 0 0 332.8 67.15 A 16.415 16.415 0 0 0 336.261 65.895 A 18.31 18.31 0 0 0 336.55 65.75 A 18.227 18.227 0 0 0 339.673 63.705 A 20.54 20.54 0 0 0 340.1 63.35 A 12.991 12.991 0 0 0 342.613 60.44 A 15.01 15.01 0 0 0 343 59.8 Z M 53 43.3 L 80.9 43.3 Q 80.9 40.4 80.2 37.55 Q 79.5 34.7 77.95 32.5 Q 76.4 30.3 73.95 28.95 Q 71.569 27.638 68.197 27.601 A 17.918 17.918 0 0 0 68 27.6 A 14.891 14.891 0 0 0 62.652 28.531 A 13.424 13.424 0 0 0 57.85 31.7 Q 53.8 35.8 53 43.3 Z M 437.4 43.3 L 465.3 43.3 Q 465.3 40.4 464.6 37.55 Q 463.9 34.7 462.35 32.5 Q 460.8 30.3 458.35 28.95 Q 455.969 27.638 452.597 27.601 A 17.918 17.918 0 0 0 452.4 27.6 A 14.891 14.891 0 0 0 447.052 28.531 A 13.424 13.424 0 0 0 442.25 31.7 Q 438.2 35.8 437.4 43.3 Z M 141.9 11.9 Q 140.3 11.9 139.15 10.85 A 3.424 3.424 0 0 1 138.112 9.004 A 5.14 5.14 0 0 1 138 7.9 Q 138 6.276 138.725 5.246 A 3.379 3.379 0 0 1 139.1 4.8 A 3.664 3.664 0 0 1 141.75 3.7 A 4.623 4.623 0 0 1 141.8 3.7 Q 143.3 3.7 144.45 4.75 Q 145.474 5.685 145.586 7.452 A 7.067 7.067 0 0 1 145.6 7.9 A 5.779 5.779 0 0 1 145.493 9.052 Q 145.256 10.212 144.5 10.9 Q 143.4 11.9 141.9 11.9 Z" vector-effect="non-scaling-stroke"/>
    </g>
  </defs>
  <g class="parallax">
    <use xlink:href="#name" x="48" y="0" fill="rgba(149, 202, 202, 0.4)" fill-opacity="0.2" />
    <use xlink:href="#name" x="50" y="3" fill="rgba(0, 90, 202, 0.3)" fill-opacity="0.7"/>
    <use xlink:href="#name" x="52" y="5" fill="rgba(12, 164, 165, 0.1)" fill-opacity="0.3"/>
    <use xlink:href="#name" x="54" y="7" fill="rgba(12, 164, 165, 0.2)" fill-opacity="0.1"/>
  </g>

  <style>
  @import url('https://fonts.googleapis.com/css?family=Fira+Mono:400');

.text{ 
  display: flex;
  width: 100vw;
  height: 100vh;
  align-items: center;
  justify-content: center;
  margin: 0;
  background: #131313;
  color: #fff;
  font-size: 96px;
  font-family: 'Fira Mono', monospace;
  letter-spacing: -7px;
}
  
.name{
  animation: glitch 1s linear infinite;
}

@keyframes glitch{
  2%,64%{
    transform: translate(2px,0) skew(0deg);
  }
  4%,60%{
    transform: translate(-2px,0) skew(0deg);
  }
  62%{
    transform: translate(0,0) skew(5deg); 
  }
}

.text:before,
.text:after{
  content: attr(title);
  position: absolute;
  left: 0;
}

.text:before{
  animation: glitchTop 1s linear infinite;
  clip-path: polygon(0 0, 100% 0, 100% 33%, 0 33%);
  -webkit-clip-path: polygon(0 0, 100% 0, 100% 33%, 0 33%);
}

@keyframes glitchTop{
  2%,64%{
    transform: translate(2px,-2px);
  }
  4%,60%{
    transform: translate(-2px,2px);
  }
  62%{
    transform: translate(13px,-1px) skew(-13deg); 
  }
}

div:after{
  animation: glitchBotom 1.5s linear infinite;
  clip-path: polygon(0 67%, 100% 67%, 100% 100%, 0 100%);
  -webkit-clip-path: polygon(0 67%, 100% 67%, 100% 100%, 0 100%);
}

@keyframes glitchBotom{
  2%,64%{
    transform: translate(-2px,0);
  }
  4%,60%{
    transform: translate(-2px,0);
  }
  62%{
    transform: translate(-22px,5px) skew(21deg); 
  }
}
  </style>

</svg>
