<svg width="878.2" height="94.5" viewBox="0 0 878.2 94.5" xmlns="http://www.w3.org/2000/svg"><g id="svgGroup" stroke-linecap="round" fill-rule="evenodd" font-size="9pt" stroke="#000" stroke-width="0.25mm" fill="#000" style="stroke:#000;stroke-width:0.25mm;fill:#000"><path d="M 5 76.5 L 0 76.5 L 0 3.4 L 5 3.4 L 5 36.4 L 20.3 36.4 L 36.5 3.4 L 42 3.4 L 24.8 38.4 L 43 76.5 L 37.1 76.5 L 20.2 40.9 L 5 40.9 L 5 76.5 Z M 357.5 58 L 362.5 58 A 16.073 16.073 0 0 0 363.267 63.08 A 13.173 13.173 0 0 0 367.15 68.9 A 15.87 15.87 0 0 0 374.154 72.424 Q 376.613 73 379.5 73 Q 385.298 73 389.154 70.759 A 13.137 13.137 0 0 0 391.25 69.25 Q 395.5 65.5 395.5 58.8 A 17.131 17.131 0 0 0 394.47 52.789 A 15.619 15.619 0 0 0 392.2 48.7 A 16.753 16.753 0 0 0 384.756 43.23 A 21.115 21.115 0 0 0 383.2 42.7 L 374.8 40.2 A 25.311 25.311 0 0 1 368.787 37.518 A 20.141 20.141 0 0 1 363.55 32.85 Q 359.5 27.7 359.5 20.6 A 21.485 21.485 0 0 1 360.003 15.844 A 16.375 16.375 0 0 1 361.95 10.95 A 16.052 16.052 0 0 1 368.389 4.982 A 19.415 19.415 0 0 1 368.95 4.7 A 21.581 21.581 0 0 1 374.889 2.865 A 29.135 29.135 0 0 1 379.6 2.5 A 26.52 26.52 0 0 1 385.714 3.165 A 17.815 17.815 0 0 1 394.15 7.65 A 17.034 17.034 0 0 1 399.053 16.868 A 24.88 24.88 0 0 1 399.5 21.7 L 394.5 21.7 A 17.759 17.759 0 0 0 393.923 17.055 A 13.054 13.054 0 0 0 390.4 11 A 13.786 13.786 0 0 0 383.111 7.317 A 19.713 19.713 0 0 0 379.5 7 A 22.574 22.574 0 0 0 375.043 7.414 Q 372.411 7.944 370.362 9.155 A 12.409 12.409 0 0 0 368.5 10.5 A 11.461 11.461 0 0 0 364.705 17.529 A 16.678 16.678 0 0 0 364.5 20.2 Q 364.5 25.6 367.6 29.65 A 16.327 16.327 0 0 0 374.69 34.931 A 20.347 20.347 0 0 0 376 35.4 L 384.4 38 A 25.574 25.574 0 0 1 391.311 41.285 A 21.941 21.941 0 0 1 396.15 45.8 Q 400.5 51.3 400.5 58.5 A 22.184 22.184 0 0 1 399.94 63.597 A 17.247 17.247 0 0 1 397.95 68.55 Q 395.4 72.8 390.7 75.15 A 21.542 21.542 0 0 1 384.888 77.042 Q 382.369 77.5 379.5 77.5 A 31.542 31.542 0 0 1 373.787 77.007 A 23.149 23.149 0 0 1 367.85 75.1 A 18.582 18.582 0 0 1 362.349 71.118 A 17.352 17.352 0 0 1 360.2 68.3 Q 357.5 63.9 357.5 58 Z M 245 76.5 L 240 76.5 L 240 21.5 L 245 21.5 L 245 31 L 247.3 31 L 244.3 36.1 A 18.816 18.816 0 0 1 244.912 31.176 A 13.875 13.875 0 0 1 248.65 24.75 A 14.591 14.591 0 0 1 256.213 20.877 A 21.117 21.117 0 0 1 260.3 20.5 A 20.47 20.47 0 0 1 266.14 21.294 A 15.871 15.871 0 0 1 273.3 25.7 Q 278.2 30.9 278.2 39.8 L 278.2 76.5 L 273.2 76.5 L 273.2 40.5 A 23.529 23.529 0 0 0 272.777 35.895 Q 272.228 33.146 270.967 31.014 A 12.758 12.758 0 0 0 269.45 28.95 A 12.365 12.365 0 0 0 261.699 24.959 A 17.569 17.569 0 0 0 259.3 24.8 Q 252.7 24.8 248.85 29 A 14.03 14.03 0 0 0 245.637 35.075 Q 245 37.531 245 40.5 L 245 76.5 Z M 845 76.5 L 840 76.5 L 840 21.5 L 845 21.5 L 845 31 L 847.3 31 L 844.3 36.1 A 18.816 18.816 0 0 1 844.912 31.176 A 13.875 13.875 0 0 1 848.65 24.75 A 14.591 14.591 0 0 1 856.213 20.877 A 21.117 21.117 0 0 1 860.3 20.5 A 20.47 20.47 0 0 1 866.14 21.294 A 15.871 15.871 0 0 1 873.3 25.7 Q 878.2 30.9 878.2 39.8 L 878.2 76.5 L 873.2 76.5 L 873.2 40.5 A 23.529 23.529 0 0 0 872.777 35.895 Q 872.228 33.146 870.967 31.014 A 12.758 12.758 0 0 0 869.45 28.95 A 12.365 12.365 0 0 0 861.699 24.959 A 17.569 17.569 0 0 0 859.3 24.8 Q 852.7 24.8 848.85 29 A 14.03 14.03 0 0 0 845.637 35.075 Q 845 37.531 845 40.5 L 845 76.5 Z M 494.3 45.5 L 513.2 45.5 L 513.2 39 Q 513.2 33.667 510.849 30.26 A 11.22 11.22 0 0 0 509.6 28.75 A 11.713 11.713 0 0 0 504.183 25.68 Q 502.03 25.1 499.4 25.1 A 20.092 20.092 0 0 0 495.033 25.55 A 14.129 14.129 0 0 0 489.5 28.05 A 11.561 11.561 0 0 0 484.923 35.845 A 14.656 14.656 0 0 0 484.9 36 L 479.9 36 Q 480.9 29 486.25 24.75 A 19.431 19.431 0 0 1 495.878 20.734 A 25.776 25.776 0 0 1 499.4 20.5 A 22.989 22.989 0 0 1 505.417 21.248 A 16.931 16.931 0 0 1 513.05 25.6 Q 518.2 30.7 518.2 39 L 518.2 76.5 L 513.2 76.5 L 513.2 65.3 L 512.3 65.3 L 513.9 63.3 A 13.36 13.36 0 0 1 512.884 68.587 Q 511.676 71.422 509.034 73.533 A 15.724 15.724 0 0 1 508.95 73.6 A 17.363 17.363 0 0 1 502.385 76.754 Q 499.857 77.395 496.885 77.485 A 32.465 32.465 0 0 1 495.9 77.5 A 26.128 26.128 0 0 1 490.23 76.919 Q 486.15 76.013 483.139 73.692 A 16.359 16.359 0 0 1 482.3 73 Q 477.2 68.5 477.2 61.1 A 17.368 17.368 0 0 1 477.917 55.988 A 13.677 13.677 0 0 1 481.9 49.75 A 16.046 16.046 0 0 1 489.517 45.969 A 23.201 23.201 0 0 1 494.3 45.5 Z M 458.5 76.5 L 445 76.5 A 19.88 19.88 0 0 1 441.267 76.172 Q 439.12 75.761 437.447 74.836 A 10.091 10.091 0 0 1 435.35 73.3 Q 432.276 70.364 432.023 64.986 A 20.953 20.953 0 0 1 432 64 L 432 26 L 416 26 L 416 21.5 L 432 21.5 L 432 6 L 437 6 L 437 21.5 L 459.5 21.5 L 459.5 26 L 437 26 L 437 64 Q 437 70.348 442.037 71.659 A 11.786 11.786 0 0 0 445 72 L 458.5 72 L 458.5 76.5 Z M 758.5 76.5 L 745 76.5 A 19.88 19.88 0 0 1 741.267 76.172 Q 739.12 75.761 737.447 74.836 A 10.091 10.091 0 0 1 735.35 73.3 Q 732.276 70.364 732.023 64.986 A 20.953 20.953 0 0 1 732 64 L 732 26 L 716 26 L 716 21.5 L 732 21.5 L 732 6 L 737 6 L 737 21.5 L 759.5 21.5 L 759.5 26 L 737 26 L 737 64 Q 737 70.348 742.037 71.659 A 11.786 11.786 0 0 0 745 72 L 758.5 72 L 758.5 76.5 Z M 545 94.5 L 540 94.5 L 540 21.5 L 545 21.5 L 545 29 L 547.8 29 L 544 35.5 A 16.625 16.625 0 0 1 544.714 30.51 A 13.211 13.211 0 0 1 548.5 24.6 Q 553 20.5 560.3 20.5 A 20.429 20.429 0 0 1 566.273 21.332 A 15.933 15.933 0 0 1 573.55 25.95 A 18.536 18.536 0 0 1 577.915 34.632 A 26.975 26.975 0 0 1 578.5 40.4 L 578.5 57.5 A 26.524 26.524 0 0 1 577.995 62.796 A 20.249 20.249 0 0 1 576.2 68 A 17.76 17.76 0 0 1 572.156 73.291 A 16.778 16.778 0 0 1 569.85 75 A 16.655 16.655 0 0 1 563.438 77.28 A 21.649 21.649 0 0 1 560.3 77.5 A 20.915 20.915 0 0 1 555.121 76.892 A 15.097 15.097 0 0 1 548.5 73.35 A 13.757 13.757 0 0 1 544.054 63.935 A 18.776 18.776 0 0 1 544 62.5 L 546.8 69 L 545 69 L 545 76.5 L 545 94.5 Z M 142.1 76.5 L 135.9 76.5 L 116.6 21.5 L 121.8 21.5 L 135.8 62.5 Q 136.7 65.2 137.65 68.15 Q 138.377 70.409 138.841 71.935 A 102.13 102.13 0 0 1 139.1 72.8 Q 139.483 71.499 140.1 69.464 A 914.415 914.415 0 0 1 140.5 68.15 A 103.145 103.145 0 0 1 142.152 63.179 A 93.01 93.01 0 0 1 142.4 62.5 L 156.3 21.5 L 161.4 21.5 L 142.1 76.5 Z M 59.5 57.5 L 59.5 40.5 A 26.731 26.731 0 0 1 59.95 35.479 A 19.675 19.675 0 0 1 61.85 29.95 Q 64.2 25.5 68.6 23 A 18.739 18.739 0 0 1 74.594 20.882 A 25.472 25.472 0 0 1 79.1 20.5 A 24.823 24.823 0 0 1 84.01 20.962 A 17.862 17.862 0 0 1 89.5 23 Q 93.8 25.5 96.15 29.95 Q 98.5 34.4 98.5 40.5 L 98.5 50 L 64.5 50 L 64.5 57.5 Q 64.5 63.679 67.298 67.648 A 13.205 13.205 0 0 0 68.3 68.9 A 12.343 12.343 0 0 0 74.851 72.648 A 18.82 18.82 0 0 0 79.1 73.1 A 19.13 19.13 0 0 0 83.177 72.688 A 13.365 13.365 0 0 0 88.35 70.4 A 13.604 13.604 0 0 0 93.118 63.864 A 17.02 17.02 0 0 0 93.4 63 L 98.4 63 A 19.288 19.288 0 0 1 95.909 69.165 A 17.215 17.215 0 0 1 91.85 73.6 A 18.305 18.305 0 0 1 84.094 77.037 A 25.679 25.679 0 0 1 79.1 77.5 A 25.525 25.525 0 0 1 74.088 77.031 A 18.774 18.774 0 0 1 68.6 75.05 Q 64.2 72.6 61.85 68.1 A 20.21 20.21 0 0 1 59.888 62.192 A 27.182 27.182 0 0 1 59.5 57.5 Z M 659.5 57.5 L 659.5 40.5 A 26.731 26.731 0 0 1 659.95 35.479 A 19.675 19.675 0 0 1 661.85 29.95 Q 664.2 25.5 668.6 23 A 18.739 18.739 0 0 1 674.594 20.882 A 25.472 25.472 0 0 1 679.1 20.5 A 24.823 24.823 0 0 1 684.01 20.962 A 17.862 17.862 0 0 1 689.5 23 Q 693.8 25.5 696.15 29.95 Q 698.5 34.4 698.5 40.5 L 698.5 50 L 664.5 50 L 664.5 57.5 Q 664.5 63.679 667.298 67.648 A 13.205 13.205 0 0 0 668.3 68.9 A 12.343 12.343 0 0 0 674.851 72.648 A 18.82 18.82 0 0 0 679.1 73.1 A 19.13 19.13 0 0 0 683.177 72.688 A 13.365 13.365 0 0 0 688.35 70.4 A 13.604 13.604 0 0 0 693.118 63.864 A 17.02 17.02 0 0 0 693.4 63 L 698.4 63 A 19.288 19.288 0 0 1 695.909 69.165 A 17.215 17.215 0 0 1 691.85 73.6 A 18.305 18.305 0 0 1 684.094 77.037 A 25.679 25.679 0 0 1 679.1 77.5 A 25.525 25.525 0 0 1 674.088 77.031 A 18.774 18.774 0 0 1 668.6 75.05 Q 664.2 72.6 661.85 68.1 A 20.21 20.21 0 0 1 659.888 62.192 A 27.182 27.182 0 0 1 659.5 57.5 Z M 643 76.5 L 625.5 76.5 A 21.714 21.714 0 0 1 622.106 76.249 Q 619.753 75.877 617.9 74.95 Q 614.8 73.4 613.15 70.35 A 13.248 13.248 0 0 1 611.816 66.523 Q 611.51 64.933 611.5 63.118 A 22.28 22.28 0 0 1 611.5 63 L 611.5 8 L 594 8 L 594 3.5 L 616.5 3.5 L 616.5 63 Q 616.5 66.185 617.705 68.27 A 6.886 6.886 0 0 0 618.8 69.7 A 7.362 7.362 0 0 0 621.917 71.52 Q 623.084 71.876 624.492 71.968 A 15.479 15.479 0 0 0 625.5 72 L 643 72 L 643 76.5 Z M 222.5 76.5 L 178.5 76.5 L 178.5 72 L 198.6 72 L 198.6 26 L 181 26 L 181 21.5 L 203.6 21.5 L 203.6 72 L 222.5 72 L 222.5 76.5 Z M 779.5 57.5 L 779.5 40.5 A 26.043 26.043 0 0 1 779.993 35.311 A 19.33 19.33 0 0 1 781.9 29.95 Q 784.3 25.5 788.7 23 A 18.97 18.97 0 0 1 795.29 20.769 A 24.726 24.726 0 0 1 799 20.5 A 23.606 23.606 0 0 1 804.202 21.05 A 18.486 18.486 0 0 1 809.3 23 Q 813.7 25.5 816.1 29.95 Q 818.5 34.4 818.5 40.5 L 818.5 57.5 A 26.126 26.126 0 0 1 817.99 62.784 A 19.679 19.679 0 0 1 816.1 68.1 Q 813.7 72.6 809.35 75.05 A 18.667 18.667 0 0 1 803.352 77.141 A 25.275 25.275 0 0 1 799 77.5 A 24.069 24.069 0 0 1 793.798 76.962 A 18.717 18.717 0 0 1 788.7 75.05 Q 784.3 72.6 781.9 68.1 A 20.029 20.029 0 0 1 779.852 61.936 A 26.851 26.851 0 0 1 779.5 57.5 Z M 813.5 57.5 L 813.5 40.5 A 22.853 22.853 0 0 0 813.066 35.901 Q 812.207 31.723 809.65 29 A 12.658 12.658 0 0 0 802.778 25.262 A 18.759 18.759 0 0 0 799 24.9 A 18.139 18.139 0 0 0 794.538 25.418 A 12.501 12.501 0 0 0 788.35 29 A 13.459 13.459 0 0 0 785.237 34.657 Q 784.65 36.733 784.53 39.211 A 26.813 26.813 0 0 0 784.5 40.5 L 784.5 57.5 A 23.258 23.258 0 0 0 784.909 62.001 Q 785.446 64.72 786.686 66.828 A 12.55 12.55 0 0 0 788.3 69 A 12.397 12.397 0 0 0 794.806 72.659 A 18.803 18.803 0 0 0 799 73.1 A 18.628 18.628 0 0 0 803.377 72.616 A 12.351 12.351 0 0 0 809.7 69 Q 813.5 64.9 813.5 57.5 Z M 573.5 57.5 L 573.5 40.4 A 23.559 23.559 0 0 0 573.096 35.899 Q 572.27 31.655 569.75 28.9 A 12.282 12.282 0 0 0 562.927 25.143 A 18.249 18.249 0 0 0 559.3 24.8 A 17.593 17.593 0 0 0 554.859 25.33 A 12.295 12.295 0 0 0 548.8 28.9 Q 545 33 545 40.4 L 545 57.5 A 23.229 23.229 0 0 0 545.429 62.105 Q 545.992 64.887 547.294 67.037 A 12.762 12.762 0 0 0 548.8 69.05 A 12.483 12.483 0 0 0 555.922 72.903 A 18.325 18.325 0 0 0 559.3 73.2 A 17.355 17.355 0 0 0 563.691 72.676 A 12.085 12.085 0 0 0 569.75 69.05 A 13.718 13.718 0 0 0 572.73 63.539 Q 573.332 61.441 573.463 58.935 A 27.368 27.368 0 0 0 573.5 57.5 Z M 513.2 59.8 L 513.2 49.9 L 494.2 49.9 A 16.08 16.08 0 0 0 490.445 50.315 A 11.204 11.204 0 0 0 485.5 52.85 A 9.738 9.738 0 0 0 482.252 59.506 A 13.535 13.535 0 0 0 482.2 60.7 A 11.825 11.825 0 0 0 483.112 65.406 A 11.268 11.268 0 0 0 486.35 69.65 Q 490.5 73.1 497.3 73.1 A 22.235 22.235 0 0 0 502.245 72.58 A 15.285 15.285 0 0 0 508.8 69.4 A 11.836 11.836 0 0 0 513.168 60.798 A 15.102 15.102 0 0 0 513.2 59.8 Z M 94.6 45.7 L 93.5 46.6 L 93.5 40.5 A 22.366 22.366 0 0 0 93.037 35.809 Q 92.182 31.824 89.75 29.1 A 12.188 12.188 0 0 0 83.105 25.31 A 18.479 18.479 0 0 0 79.1 24.9 A 18.901 18.901 0 0 0 74.712 25.38 A 12.341 12.341 0 0 0 68.3 29.05 Q 64.5 33.2 64.5 40.5 L 64.5 45.7 L 94.6 45.7 Z M 694.6 45.7 L 693.5 46.6 L 693.5 40.5 A 22.366 22.366 0 0 0 693.037 35.809 Q 692.182 31.824 689.75 29.1 A 12.188 12.188 0 0 0 683.105 25.31 A 18.479 18.479 0 0 0 679.1 24.9 A 18.901 18.901 0 0 0 674.712 25.38 A 12.341 12.341 0 0 0 668.3 29.05 Q 664.5 33.2 664.5 40.5 L 664.5 45.7 L 694.6 45.7 Z M 198.639 10.776 A 7.327 7.327 0 0 0 200.5 11 A 7.72 7.72 0 0 0 201.888 10.881 A 5.442 5.442 0 0 0 204.7 9.5 A 4.852 4.852 0 0 0 206.056 7.3 A 6.317 6.317 0 0 0 206.3 5.5 A 7.004 7.004 0 0 0 206.243 4.589 A 4.983 4.983 0 0 0 204.7 1.5 A 5.337 5.337 0 0 0 202.361 0.225 A 7.327 7.327 0 0 0 200.5 0 A 7.72 7.72 0 0 0 199.112 0.12 A 5.442 5.442 0 0 0 196.3 1.5 A 4.852 4.852 0 0 0 194.944 3.7 A 6.317 6.317 0 0 0 194.7 5.5 A 7.004 7.004 0 0 0 194.757 6.412 A 4.983 4.983 0 0 0 196.3 9.5 A 5.337 5.337 0 0 0 198.639 10.776 Z" vector-effect="non-scaling-stroke"/></g></svg>
